<svg width="25" height="25" viewBox="0 0 25 25" fill="none" xmlns="http://www.w3.org/2000/svg">
<g clip-path="url(#clip0)">
<path fill-rule="evenodd" clip-rule="evenodd" d="M8.90928 1.32129C8.90928 1.12238 8.98829 0.931611 9.12895 0.790959C9.2696 0.650307 9.46036 0.571289 9.65928 0.571289H15.6593C15.8582 0.571289 16.049 0.650307 16.1896 0.790959C16.3303 0.931611 16.4093 1.12238 16.4093 1.32129C16.4093 1.5202 16.3303 1.71097 16.1896 1.85162C16.049 1.99227 15.8582 2.07129 15.6593 2.07129H14.1593V3.67629C16.1585 3.9658 18.0319 4.82573 19.5548 6.153C21.0777 7.48026 22.1855 9.21855 22.7455 11.1595C23.3054 13.1004 23.2938 15.1617 22.7119 17.0962C22.13 19.0307 21.0026 20.7563 19.4648 22.0663L20.6903 23.2903C20.8311 23.4311 20.9102 23.6221 20.9102 23.8213C20.9102 24.0205 20.8311 24.2115 20.6903 24.3523C20.5494 24.4931 20.3584 24.5722 20.1593 24.5722C19.9601 24.5722 19.7691 24.4931 19.6283 24.3523L18.2423 22.9648C16.5705 24.0172 14.6347 24.5742 12.6593 24.5713C10.684 24.5747 8.74819 24.0182 7.07628 22.9663L5.69028 24.3523C5.54945 24.4931 5.35844 24.5722 5.15928 24.5722C4.96011 24.5722 4.76911 24.4931 4.62828 24.3523C4.48745 24.2115 4.40833 24.0205 4.40833 23.8213C4.40833 23.6221 4.48745 23.4311 4.62828 23.2903L5.85378 22.0663C4.31596 20.7563 3.18855 19.0307 2.60667 17.0962C2.02479 15.1617 2.01313 13.1004 2.57309 11.1595C3.13305 9.21855 4.24088 7.48026 5.76377 6.153C7.28667 4.82573 9.16002 3.9658 11.1593 3.67629V2.07129H9.65778C9.45886 2.07129 9.2681 1.99227 9.12745 1.85162C8.98679 1.71097 8.90778 1.5202 8.90778 1.32129H8.90928ZM1.94928 8.65179C1.56117 8.31419 1.24666 7.90036 1.02532 7.43602C0.803978 6.97168 0.680534 6.46677 0.662664 5.95269C0.644794 5.4386 0.73288 4.92634 0.921444 4.44776C1.11001 3.96917 1.39502 3.53449 1.75875 3.17076C2.12248 2.80703 2.55716 2.52202 3.03574 2.33346C3.51433 2.14489 4.02659 2.05681 4.54068 2.07468C5.05476 2.09255 5.55967 2.21599 6.02401 2.43733C6.48834 2.65867 6.90218 2.97318 7.23978 3.36129C4.9597 4.51891 3.1069 6.37171 1.94928 8.65179ZM20.9093 2.07129C19.7798 2.07129 18.7658 2.57079 18.0788 3.36129C20.3589 4.51891 22.2117 6.37171 23.3693 8.65179C23.946 8.15061 24.3558 7.48522 24.544 6.7447C24.7321 6.00418 24.6896 5.22385 24.422 4.50817C24.1545 3.7925 23.6747 3.17562 23.0469 2.74011C22.4192 2.30461 21.6733 2.07125 20.9093 2.07129ZM13.4093 8.07129C13.4093 7.87238 13.3303 7.68161 13.1896 7.54096C13.049 7.40031 12.8582 7.32129 12.6593 7.32129C12.4604 7.32129 12.2696 7.40031 12.1289 7.54096C11.9883 7.68161 11.9093 7.87238 11.9093 8.07129V13.8943L9.73878 18.2353C9.69375 18.3234 9.66661 18.4196 9.65893 18.5183C9.65125 18.617 9.66319 18.7162 9.69404 18.8103C9.72489 18.9043 9.77405 18.9913 9.83869 19.0663C9.90333 19.1412 9.98217 19.2027 10.0707 19.247C10.1592 19.2913 10.2555 19.3177 10.3543 19.3246C10.453 19.3316 10.5522 19.3189 10.646 19.2873C10.7398 19.2557 10.8264 19.2059 10.9009 19.1407C10.9753 19.0754 11.0361 18.9961 11.0798 18.9073L13.3298 14.4073C13.382 14.303 13.4093 14.1879 13.4093 14.0713V8.07129Z" fill="#E45F42"/>
</g>
<defs>
<clipPath id="clip0">
<rect width="24" height="24" fill="white" transform="translate(0.658203 0.571289)"/>
</clipPath>
</defs>
</svg>
