<svg width="44" height="43" viewBox="0 0 44 43" fill="none" xmlns="http://www.w3.org/2000/svg">
<path fill-rule="evenodd" clip-rule="evenodd" d="M21.4833 12.4861C21.6085 12.6109 21.7077 12.7592 21.7755 12.9224C21.8432 13.0857 21.8781 13.2607 21.8781 13.4375C21.8781 13.6142 21.8432 13.7892 21.7755 13.9525C21.7077 14.1157 21.6085 14.264 21.4833 14.3888L14.3695 21.5L21.4833 28.6111C21.6083 28.736 21.7074 28.8843 21.775 29.0476C21.8426 29.2108 21.8774 29.3858 21.8774 29.5625C21.8774 29.7391 21.8426 29.9141 21.775 30.0773C21.7074 30.2406 21.6083 30.3889 21.4833 30.5138C21.3584 30.6388 21.2101 30.7379 21.0468 30.8055C20.8836 30.8731 20.7086 30.9079 20.5319 30.9079C20.3553 30.9079 20.1803 30.8731 20.0171 30.8055C19.8538 30.7379 19.7055 30.6388 19.5806 30.5138L11.5181 22.4513C11.3929 22.3265 11.2936 22.1782 11.2259 22.015C11.1582 21.8517 11.1233 21.6767 11.1233 21.5C11.1233 21.3232 11.1582 21.1482 11.2259 20.9849C11.2936 20.8217 11.3929 20.6734 11.5181 20.5486L19.5806 12.4861C19.7054 12.3609 19.8537 12.2617 20.0169 12.1939C20.1802 12.1262 20.3552 12.0913 20.5319 12.0913C20.7087 12.0913 20.8837 12.1262 21.047 12.1939C21.2102 12.2617 21.3585 12.3609 21.4833 12.4861V12.4861Z" fill="#979797"/>
<path fill-rule="evenodd" clip-rule="evenodd" d="M12.4695 21.5C12.4695 21.1436 12.6111 20.8018 12.8631 20.5498C13.1151 20.2978 13.4568 20.1562 13.8132 20.1562H31.282C31.6384 20.1562 31.9802 20.2978 32.2322 20.5498C32.4842 20.8018 32.6257 21.1436 32.6257 21.5C32.6257 21.8564 32.4842 22.1982 32.2322 22.4502C31.9802 22.7022 31.6384 22.8438 31.282 22.8438H13.8132C13.4568 22.8438 13.1151 22.7022 12.8631 22.4502C12.6111 22.1982 12.4695 21.8564 12.4695 21.5Z" fill="#979797"/>
</svg>
