<svg width="31" height="30" viewBox="0 0 31 30" fill="none" xmlns="http://www.w3.org/2000/svg">
<path fill-rule="evenodd" clip-rule="evenodd" d="M0.69458 4.44968C0.69458 3.44645 1.08967 2.48431 1.79293 1.77492C2.49619 1.06552 3.45002 0.666992 4.44458 0.666992L26.9446 0.666992C27.9391 0.666992 28.893 1.06552 29.5962 1.77492C30.2995 2.48431 30.6946 3.44645 30.6946 4.44968V19.5804C30.6946 20.5837 30.2995 21.5458 29.5962 22.2552C28.893 22.9646 27.9391 23.3631 26.9446 23.3631H22.2571C21.966 23.3631 21.6789 23.4315 21.4186 23.5628C21.1582 23.6941 20.9317 23.8848 20.7571 24.1197L17.1946 28.9105C17.0199 29.1453 16.7935 29.336 16.5331 29.4673C16.2728 29.5986 15.9857 29.667 15.6946 29.667C15.4035 29.667 15.1164 29.5986 14.8561 29.4673C14.5957 29.336 14.3692 29.1453 14.1946 28.9105L10.6321 24.1197C10.4574 23.8848 10.231 23.6941 9.97061 23.5628C9.71025 23.4315 9.42316 23.3631 9.13208 23.3631H4.44458C3.45002 23.3631 2.49619 22.9646 1.79293 22.2552C1.08967 21.5458 0.69458 20.5837 0.69458 19.5804V4.44968ZM10.0696 12.0151C10.0696 12.5167 9.87204 12.9978 9.5204 13.3524C9.16877 13.7071 8.69186 13.9064 8.19458 13.9064C7.6973 13.9064 7.22039 13.7071 6.86875 13.3524C6.51712 12.9978 6.31958 12.5167 6.31958 12.0151C6.31958 11.5134 6.51712 11.0324 6.86875 10.6777C7.22039 10.323 7.6973 10.1237 8.19458 10.1237C8.69186 10.1237 9.16877 10.323 9.5204 10.6777C9.87204 11.0324 10.0696 11.5134 10.0696 12.0151ZM17.5696 12.0151C17.5696 12.5167 17.372 12.9978 17.0204 13.3524C16.6688 13.7071 16.1919 13.9064 15.6946 13.9064C15.1973 13.9064 14.7204 13.7071 14.3688 13.3524C14.0171 12.9978 13.8196 12.5167 13.8196 12.0151C13.8196 11.5134 14.0171 11.0324 14.3688 10.6777C14.7204 10.323 15.1973 10.1237 15.6946 10.1237C16.1919 10.1237 16.6688 10.323 17.0204 10.6777C17.372 11.0324 17.5696 11.5134 17.5696 12.0151ZM23.1946 13.9064C23.6919 13.9064 24.1688 13.7071 24.5204 13.3524C24.872 12.9978 25.0696 12.5167 25.0696 12.0151C25.0696 11.5134 24.872 11.0324 24.5204 10.6777C24.1688 10.323 23.6919 10.1237 23.1946 10.1237C22.6973 10.1237 22.2204 10.323 21.8688 10.6777C21.5171 11.0324 21.3196 11.5134 21.3196 12.0151C21.3196 12.5167 21.5171 12.9978 21.8688 13.3524C22.2204 13.7071 22.6973 13.9064 23.1946 13.9064Z" fill="#EFEFF4"/>
</svg>
