<svg width="30" height="28" viewBox="0 0 30 28" fill="none" xmlns="http://www.w3.org/2000/svg">
<path fill-rule="evenodd" clip-rule="evenodd" d="M5.71121 0.32034C5.79714 0.219876 5.90381 0.13922 6.02389 0.0839209C6.14397 0.0286214 6.2746 -8.69555e-06 6.4068 1.98107e-09H22.8814C23.0136 -8.69555e-06 23.1443 0.0286214 23.2644 0.0839209C23.3844 0.13922 23.4911 0.219876 23.577 0.32034L28.6274 6.21277C29.0538 6.71036 29.2882 7.34405 29.2882 7.99935V8.23732H27.4577V7.99935C27.4577 7.78121 27.3798 7.57023 27.2381 7.40444L22.4604 1.83052H6.82782L2.05018 7.40444C1.9084 7.57023 1.8305 7.78121 1.83052 7.99935V8.23732H0V7.99935C2.30518e-05 7.34405 0.23441 6.71036 0.660816 6.21277L5.71304 0.31851L5.71121 0.32034Z" fill="#EFEFF4"/>
<path d="M4.34747 10.7543C5.73867 10.7543 6.86443 9.62667 6.86443 8.2373H8.69495C8.69495 8.90484 8.96013 9.54504 9.43215 10.0171C9.90417 10.4891 10.5444 10.7543 11.2119 10.7543C11.8794 10.7543 12.5196 10.4891 12.9917 10.0171C13.4637 9.54504 13.7289 8.90484 13.7289 8.2373H15.5594C15.5594 8.90484 15.8246 9.54504 16.2966 10.0171C16.7686 10.4891 17.4088 10.7543 18.0763 10.7543C18.7439 10.7543 19.3841 10.4891 19.8561 10.0171C20.3281 9.54504 20.5933 8.90484 20.5933 8.2373H22.4238C22.4238 8.90484 22.689 9.54504 23.161 10.0171C23.633 10.4891 24.2732 10.7543 24.9408 10.7543C25.6083 10.7543 26.2485 10.4891 26.7205 10.0171C27.1926 9.54504 27.4577 8.90484 27.4577 8.2373H29.2882C29.2883 9.14337 29.0054 10.0268 28.4788 10.7642C27.9523 11.5016 27.2085 12.056 26.3515 12.35C25.4945 12.644 24.567 12.6629 23.6987 12.4041C22.8304 12.1452 22.0647 11.6215 21.5086 10.9062C21.1024 11.4293 20.582 11.8525 19.9871 12.1435C19.3922 12.4344 18.7386 12.5854 18.0763 12.5848C17.4141 12.5855 16.7604 12.4346 16.1655 12.1437C15.5706 11.8527 15.0501 11.4294 14.6441 10.9062C14.2381 11.4294 13.7177 11.8527 13.1228 12.1437C12.5278 12.4346 11.8742 12.5855 11.2119 12.5848C10.5496 12.5855 9.89599 12.4346 9.30106 12.1437C8.70613 11.8527 8.18571 11.4294 7.77969 10.9062C7.22356 11.6215 6.45784 12.1452 5.58955 12.4041C4.72125 12.6629 3.79377 12.644 2.93674 12.35C2.07971 12.056 1.33595 11.5016 0.809422 10.7642C0.282891 10.0268 -9.99435e-05 9.14337 2.64776e-08 8.2373H1.83052C1.83052 9.6285 2.95811 10.7543 4.34747 10.7543Z" fill="#EFEFF4"/>
<path d="M8.69495 8.23752C8.69495 8.48026 8.59852 8.71306 8.42688 8.88471C8.25523 9.05635 8.02243 9.15278 7.77969 9.15278C7.53695 9.15278 7.30415 9.05635 7.13251 8.88471C6.96086 8.71306 6.86443 8.48026 6.86443 8.23752C6.86443 7.99478 6.96086 7.76198 7.13251 7.59034C7.30415 7.41869 7.53695 7.32227 7.77969 7.32227C8.02243 7.32227 8.25523 7.41869 8.42688 7.59034C8.59852 7.76198 8.69495 7.99478 8.69495 8.23752V8.23752ZM15.5594 8.23752C15.5594 8.48026 15.463 8.71306 15.2913 8.88471C15.1197 9.05635 14.8869 9.15278 14.6441 9.15278C14.4014 9.15278 14.1686 9.05635 13.9969 8.88471C13.8253 8.71306 13.7289 8.48026 13.7289 8.23752C13.7289 7.99478 13.8253 7.76198 13.9969 7.59034C14.1686 7.41869 14.4014 7.32227 14.6441 7.32227C14.8869 7.32227 15.1197 7.41869 15.2913 7.59034C15.463 7.76198 15.5594 7.99478 15.5594 8.23752V8.23752ZM22.4238 8.23752C22.4238 8.48026 22.3274 8.71306 22.1557 8.88471C21.9841 9.05635 21.7513 9.15278 21.5086 9.15278C21.2658 9.15278 21.033 9.05635 20.8614 8.88471C20.6897 8.71306 20.5933 8.48026 20.5933 8.23752C20.5933 7.99478 20.6897 7.76198 20.8614 7.59034C21.033 7.41869 21.2658 7.32227 21.5086 7.32227C21.7513 7.32227 21.9841 7.41869 22.1557 7.59034C22.3274 7.76198 22.4238 7.99478 22.4238 8.23752V8.23752ZM3.66103 14.3771V25.6274H25.6272V14.3771C26.2593 14.3081 26.8768 14.1414 27.4577 13.8828V25.6274H28.373C28.6157 25.6274 28.8485 25.7238 29.0202 25.8955C29.1918 26.0671 29.2882 26.2999 29.2882 26.5427C29.2882 26.7854 29.1918 27.0182 29.0202 27.1899C28.8485 27.3615 28.6157 27.4579 28.373 27.4579H0.915258C0.672516 27.4579 0.439717 27.3615 0.268073 27.1899C0.0964287 27.0182 0 26.7854 0 26.5427C0 26.2999 0.0964287 26.0671 0.268073 25.8955C0.439717 25.7238 0.672516 25.6274 0.915258 25.6274H1.83052V13.881C2.39981 14.1373 3.01486 14.3057 3.66103 14.3771V14.3771ZM3.66103 12.5319V10.9833H1.83052V11.7832C2.3632 12.1621 2.9874 12.4239 3.66103 12.5319V12.5319ZM27.4577 11.7832C26.9251 12.1621 26.3008 12.4239 25.6272 12.5319V10.9833H27.4577V11.7832V11.7832Z" fill="#EFEFF4"/>
<path d="M7.32197 21.9661V14.644H5.49146V21.9661C5.49146 22.4516 5.68431 22.9172 6.0276 23.2605C6.37089 23.6038 6.83649 23.7966 7.32197 23.7966H21.9661C22.4516 23.7966 22.9172 23.6038 23.2605 23.2605C23.6038 22.9172 23.7966 22.4516 23.7966 21.9661V14.644H21.9661V21.9661H7.32197Z" fill="#EFEFF4"/>
</svg>
