<svg width="21" height="20" viewBox="0 0 21 20" fill="none" xmlns="http://www.w3.org/2000/svg">
<path fill-rule="evenodd" clip-rule="evenodd" d="M10.4311 0.411212C10.548 0.280864 10.6868 0.177446 10.8396 0.106883C10.9924 0.0363204 11.1563 0 11.3218 0C11.4872 0 11.6511 0.0363204 11.8039 0.106883C11.9567 0.177446 12.0956 0.280864 12.2124 0.411212L19.7603 8.80938C19.8775 8.9394 19.9704 9.09386 20.0338 9.26391C20.0973 9.43396 20.1299 9.61626 20.1299 9.80037C20.1299 9.98448 20.0973 10.1668 20.0338 10.3368C19.9704 10.5069 19.8775 10.6613 19.7603 10.7914L12.2124 19.1895C11.9762 19.4523 11.6558 19.6 11.3218 19.6C10.9877 19.6 10.6673 19.4523 10.4311 19.1895C10.1949 18.9267 10.0622 18.5702 10.0622 18.1985C10.0622 17.8268 10.1949 17.4704 10.4311 17.2076L17.0909 9.80037L10.4311 2.39318C10.314 2.26316 10.221 2.1087 10.1576 1.93865C10.0942 1.7686 10.0615 1.58631 10.0615 1.4022C10.0615 1.21809 10.0942 1.03579 10.1576 0.865739C10.221 0.69569 10.314 0.541232 10.4311 0.411212Z" fill="#979797"/>
<path fill-rule="evenodd" clip-rule="evenodd" d="M0 9.80057C0 9.42935 0.132538 9.07333 0.368455 8.81084C0.604373 8.54835 0.924346 8.40088 1.25798 8.40088H17.6118C17.9454 8.40088 18.2654 8.54835 18.5013 8.81084C18.7372 9.07333 18.8698 9.42935 18.8698 9.80057C18.8698 10.1718 18.7372 10.5278 18.5013 10.7903C18.2654 11.0528 17.9454 11.2003 17.6118 11.2003H1.25798C0.924346 11.2003 0.604373 11.0528 0.368455 10.7903C0.132538 10.5278 0 10.1718 0 9.80057Z" fill="#979797"/>
</svg>
