<svg width="25" height="24" viewBox="0 0 25 24" fill="none" xmlns="http://www.w3.org/2000/svg">
<path d="M12.5 13C12.1955 12.9964 11.8973 13.0862 11.6454 13.2573C11.3936 13.4284 11.2001 13.6725 11.0912 13.9568C10.9823 14.2411 10.9631 14.552 11.0361 14.8476C11.1092 15.1431 11.2711 15.4092 11.5 15.61V17C11.5 17.2652 11.6054 17.5196 11.7929 17.7071C11.9804 17.8946 12.2348 18 12.5 18C12.7652 18 13.0196 17.8946 13.2071 17.7071C13.3946 17.5196 13.5 17.2652 13.5 17V15.61C13.7289 15.4092 13.8908 15.1431 13.9639 14.8476C14.0369 14.552 14.0177 14.2411 13.9088 13.9568C13.7999 13.6725 13.6064 13.4284 13.3546 13.2573C13.1027 13.0862 12.8045 12.9964 12.5 13V13ZM17.5 9V7C17.5 5.67392 16.9732 4.40215 16.0355 3.46447C15.0979 2.52678 13.8261 2 12.5 2C11.1739 2 9.90215 2.52678 8.96447 3.46447C8.02678 4.40215 7.5 5.67392 7.5 7V9C6.70435 9 5.94129 9.31607 5.37868 9.87868C4.81607 10.4413 4.5 11.2044 4.5 12V19C4.5 19.7956 4.81607 20.5587 5.37868 21.1213C5.94129 21.6839 6.70435 22 7.5 22H17.5C18.2956 22 19.0587 21.6839 19.6213 21.1213C20.1839 20.5587 20.5 19.7956 20.5 19V12C20.5 11.2044 20.1839 10.4413 19.6213 9.87868C19.0587 9.31607 18.2956 9 17.5 9ZM9.5 7C9.5 6.20435 9.81607 5.44129 10.3787 4.87868C10.9413 4.31607 11.7044 4 12.5 4C13.2956 4 14.0587 4.31607 14.6213 4.87868C15.1839 5.44129 15.5 6.20435 15.5 7V9H9.5V7ZM18.5 19C18.5 19.2652 18.3946 19.5196 18.2071 19.7071C18.0196 19.8946 17.7652 20 17.5 20H7.5C7.23478 20 6.98043 19.8946 6.79289 19.7071C6.60536 19.5196 6.5 19.2652 6.5 19V12C6.5 11.7348 6.60536 11.4804 6.79289 11.2929C6.98043 11.1054 7.23478 11 7.5 11H17.5C17.7652 11 18.0196 11.1054 18.2071 11.2929C18.3946 11.4804 18.5 11.7348 18.5 12V19Z" fill="#182645"/>
</svg>
