<svg width="27" height="27" viewBox="0 0 27 27" fill="none" xmlns="http://www.w3.org/2000/svg">
<path fill-rule="evenodd" clip-rule="evenodd" d="M2.43229 26.167C2.43229 26.167 0.265625 26.167 0.265625 24.0003C0.265625 21.8337 2.43229 15.3337 13.2656 15.3337C24.099 15.3337 26.2656 21.8337 26.2656 24.0003C26.2656 26.167 24.099 26.167 24.099 26.167H2.43229ZM13.2656 13.167C14.9895 13.167 16.6428 12.4822 17.8618 11.2632C19.0808 10.0442 19.7656 8.3909 19.7656 6.66699C19.7656 4.94309 19.0808 3.28978 17.8618 2.0708C16.6428 0.851812 14.9895 0.166992 13.2656 0.166992C11.5417 0.166992 9.88842 0.851812 8.66943 2.0708C7.45044 3.28978 6.76562 4.94309 6.76562 6.66699C6.76562 8.3909 7.45044 10.0442 8.66943 11.2632C9.88842 12.4822 11.5417 13.167 13.2656 13.167Z" fill="#EFEFF4"/>
</svg>
