<svg width="18" height="18" viewBox="0 0 18 18" fill="none" xmlns="http://www.w3.org/2000/svg">
<path d="M16.8976 13.7422L14.0259 10.8664L11.8171 9.95247C12.5525 8.90506 12.9466 7.65551 12.9452 6.37506C12.9452 2.93306 10.1489 0.132812 6.71183 0.132812C3.27476 0.132812 0.478516 2.93306 0.478516 6.37506C0.478516 9.81706 3.27476 12.6173 6.71183 12.6173C8.00158 12.6188 9.25966 12.2174 10.3108 11.469L11.221 13.675L14.0927 16.551C14.2768 16.7355 14.4955 16.8818 14.7361 16.9816C14.9767 17.0814 15.2346 17.1328 15.4951 17.1328C15.7555 17.1328 16.0135 17.0815 16.2541 16.9816C16.4947 16.8818 16.7134 16.7355 16.8976 16.5511C17.0817 16.3667 17.2278 16.1477 17.3275 15.9068C17.4272 15.6658 17.4785 15.4075 17.4785 15.1467C17.4785 14.8858 17.4272 14.6276 17.3276 14.3866C17.2279 14.1456 17.0818 13.9266 16.8976 13.7422ZM1.61185 6.37506C1.61185 3.55895 3.89976 1.26777 6.71183 1.26777C9.52391 1.26777 11.8118 3.55895 11.8118 6.37506C11.8118 9.19116 9.52391 11.4824 6.71183 11.4824C3.89976 11.4824 1.61185 9.19116 1.61185 6.37506ZM16.0962 15.7485C15.9367 15.9079 15.7205 15.9974 15.4951 15.9974C15.2698 15.9974 15.0536 15.9079 14.8941 15.7485L12.1822 13.0327L11.3359 10.9814L13.3843 11.8289L16.0963 14.5447C16.2554 14.7045 16.3448 14.9209 16.3448 15.1466C16.3448 15.3723 16.2554 15.5887 16.0962 15.7485Z" fill="#182645"/>
</svg>
