<svg width="25" height="25" viewBox="0 0 25 25" fill="none" xmlns="http://www.w3.org/2000/svg">
<path d="M6.6604 15.5977H3.6604C2.83197 15.5977 2.1604 16.2692 2.1604 17.0977V21.5977C2.1604 22.4261 2.83197 23.0977 3.6604 23.0977H6.6604C7.48883 23.0977 8.1604 22.4261 8.1604 21.5977V17.0977C8.1604 16.2692 7.48883 15.5977 6.6604 15.5977Z" fill="#E45F42"/>
<path d="M14.1604 9.59766H11.1604C10.332 9.59766 9.6604 10.2692 9.6604 11.0977V21.5977C9.6604 22.4261 10.332 23.0977 11.1604 23.0977H14.1604C14.9888 23.0977 15.6604 22.4261 15.6604 21.5977V11.0977C15.6604 10.2692 14.9888 9.59766 14.1604 9.59766Z" fill="#E45F42"/>
<path d="M21.6604 2.09766H18.6604C17.832 2.09766 17.1604 2.76923 17.1604 3.59766V21.5977C17.1604 22.4261 17.832 23.0977 18.6604 23.0977H21.6604C22.4888 23.0977 23.1604 22.4261 23.1604 21.5977V3.59766C23.1604 2.76923 22.4888 2.09766 21.6604 2.09766Z" fill="#E45F42"/>
</svg>
