<svg width="31" height="31" viewBox="0 0 31 31" fill="none" xmlns="http://www.w3.org/2000/svg">
<g clip-path="url(#clip0)">
<path fill-rule="evenodd" clip-rule="evenodd" d="M24.7655 2.90103C21.7692 2.30103 17.8242 2.22228 15.128 4.91478C15.041 5.002 14.972 5.10552 14.9251 5.21941C14.8781 5.3333 14.854 5.45533 14.8542 5.57853V26.2035C14.8539 26.3892 14.9087 26.5708 15.0117 26.7253C15.1147 26.8797 15.2612 27.0002 15.4328 27.0712C15.6043 27.1423 15.793 27.1609 15.9751 27.1246C16.1572 27.0883 16.3244 26.9987 16.4555 26.8673C18.0361 25.2848 20.4211 24.8817 22.9617 25.1423C25.4817 25.4048 27.9492 26.2991 29.4342 27.0416C29.5772 27.1133 29.736 27.1472 29.8958 27.1401C30.0555 27.133 30.2107 27.0852 30.3468 27.0012C30.4828 26.9172 30.5951 26.7998 30.673 26.6602C30.7508 26.5206 30.7917 26.3634 30.7917 26.2035V5.57853C30.7917 5.40457 30.7433 5.23404 30.6519 5.08602C30.5605 4.938 30.4298 4.81833 30.2742 4.7404L29.8542 5.57853L30.2742 4.7404L30.2705 4.73853L30.263 4.73478L30.2386 4.72353L30.1505 4.6804C29.6586 4.45073 29.1589 4.2381 28.6524 4.0429C27.3908 3.55475 26.0906 3.1728 24.7655 2.90103ZM28.9167 6.17853V24.756C27.3305 24.1129 25.2717 23.496 23.153 23.2785C21.0099 23.0573 18.6774 23.2354 16.7292 24.3285V5.98728C18.7224 4.2454 21.6624 4.19478 24.398 4.74228C25.9508 5.05994 27.4655 5.54138 28.9167 6.17853Z" fill="#EFEFF4"/>
<path fill-rule="evenodd" clip-rule="evenodd" d="M6.818 2.90103C9.81612 2.30103 13.7592 2.22228 16.4555 4.91478C16.5425 5.002 16.6115 5.10552 16.6584 5.21941C16.7054 5.3333 16.7295 5.45533 16.7292 5.57853V26.2035C16.7296 26.3892 16.6748 26.5708 16.5718 26.7253C16.4688 26.8797 16.3223 27.0002 16.1507 27.0712C15.9792 27.1423 15.7905 27.1609 15.6084 27.1246C15.4263 27.0883 15.2591 26.9987 15.128 26.8673C13.5474 25.2848 11.1624 24.8817 8.62175 25.1423C6.10175 25.4048 3.63425 26.2991 2.14925 27.0416C2.00632 27.1133 1.84745 27.1472 1.68773 27.1401C1.52802 27.133 1.37277 27.0852 1.23674 27.0012C1.10071 26.9172 0.988412 26.7998 0.910527 26.6602C0.832642 26.5206 0.791753 26.3634 0.791748 26.2035L0.791748 5.57853C0.791754 5.40457 0.840161 5.23404 0.931555 5.08602C1.02295 4.938 1.15372 4.81833 1.30925 4.7404L1.72925 5.57853L1.30925 4.7404L1.313 4.73853L1.3205 4.73478L1.34487 4.72353C1.48079 4.65583 1.61833 4.59144 1.75737 4.5304C3.38017 3.80367 5.07784 3.25727 6.81987 2.90103H6.818Z" fill="#EFEFF4"/>
</g>
<defs>
<clipPath id="clip0">
<rect width="30" height="30" fill="white" transform="translate(0.791748 0.891113)"/>
</clipPath>
</defs>
</svg>
